<svg width="44" height="43" viewBox="0 0 44 43" fill="none" xmlns="http://www.w3.org/2000/svg">
<path d="M43.9444 19.6958C43.0911 8.08741 32.5851 -0.81981 20.3725 0.0599745C8.19441 0.939759 -0.831867 11.1976 0.0608963 22.7537C0.973389 34.4572 11.5139 43.217 23.6525 42.3372C35.732 41.4574 44.7977 31.347 43.9444 19.7006V19.6958ZM28.7921 34.6569H15.4993C11.5534 34.6949 8.02671 31.6942 8.00698 27.8184L7.94779 14.4171C8.36704 10.8504 11.3067 7.74501 15.1343 7.75928H29.0732C32.7528 7.79732 35.9786 11.0121 35.9786 14.5265V27.8564C35.9786 31.5135 32.6048 34.6569 28.7921 34.6569Z" fill="#2A4776"/>
<path d="M33.5717 14.7595C33.5717 12.2533 31.1992 10.08 28.585 10.08H15.6523C12.8852 10.061 10.7002 12.0345 10.3993 14.6882L10.4388 27.6186C10.4388 30.2342 12.8655 32.3742 15.5388 32.3742H28.6245C31.2041 32.3552 33.2313 30.3816 33.5766 27.9325V14.769L33.5717 14.7595ZM26.5726 27.1003C24.279 28.7457 21.2801 29.0405 18.7005 27.8326C15.5882 26.3869 13.9013 23.1531 14.508 19.8955C15.0752 16.8044 17.714 14.2459 21.1272 13.8797C25.2803 13.4232 29.0931 16.2956 29.606 20.3711C29.9464 23.0961 28.659 25.6213 26.5529 27.1003H26.5726ZM29.9661 15.4538C29.0191 15.6726 28.22 15.216 27.9931 14.4314C27.7662 13.5706 28.1658 12.6766 29.1868 12.4388C30.0795 12.239 30.8934 12.8953 31.0857 13.5706C31.3324 14.4314 30.6862 15.2731 29.9661 15.4348V15.4538Z" fill="#2A4776"/>
<path d="M20.8657 16.5143C23.7314 15.8723 26.3653 17.5939 26.9523 20.2285C27.5392 22.8631 25.8129 25.3502 23.1987 25.9542C20.5796 26.5582 17.7928 24.9508 17.1319 22.3542C16.466 19.7577 18.0986 17.1231 20.8854 16.5048L20.8657 16.5239V16.5143Z" fill="#2A4776"/>
</svg>
