<svg width="44" height="43" viewBox="0 0 44 43" fill="none" xmlns="http://www.w3.org/2000/svg">
<path d="M43.9469 19.7354C43.1135 8.10746 32.6251 -0.799841 20.3945 0.0570032C8.19903 0.918688 -0.828323 11.1766 0.0603541 22.7513C0.954052 34.4566 11.5178 43.2138 23.6731 42.3376C35.6978 41.4614 44.7804 31.3487 43.9469 19.7354ZM23.8839 18.4719H29.1959L28.3022 23.8502H23.8638V37.1821H17.8891V23.8889H12.8232V18.5106H17.8891L17.9092 13.9553C17.9092 12.4933 18.4213 11.1379 19.1795 9.91313C20.2991 8.39308 21.9861 7.31839 23.9944 7.391L29.4168 7.59432V12.0189L26.4947 12.0577C25.3399 12.1835 24.0094 12.8806 23.914 14.1441C23.7986 15.5867 23.8739 16.9954 23.8739 18.4961V18.4767L23.8839 18.4719Z" fill="#2A4776"/>
</svg>
