<svg width="228" height="67" viewBox="0 0 228 67" fill="none" xmlns="http://www.w3.org/2000/svg">
<g clip-path="url(#clip0_349_2020)">
<path d="M224.579 15.209C220.689 10.519 213.78 7.772 205.73 7.772C197.211 7.772 189.497 10.653 184.131 15.41L185.003 9.983L182.722 9.313C179.436 8.308 175.813 7.839 172.191 7.839C166.02 7.839 160.05 9.782 155.287 12.931L156.696 8.375H119.669L119.199 9.849C115.912 8.509 112.29 7.839 108.198 7.839C100.551 7.839 92.3006 10.787 88.0747 16.482C87.8063 16.08 87.4709 15.678 87.2026 15.276C83.3121 10.586 76.403 7.839 68.3536 7.839C60.0358 7.839 52.523 10.586 47.2238 15.008L49.3032 2.479L46.9555 1.809C42.8637 0.603 38.4365 0 34.0093 0C17.7763 0 3.01904 10.318 0.402977 23.45C-0.737359 29.011 0.604213 34.438 4.0923 38.726C7.04375 42.344 11.4039 44.89 16.636 46.23H0.537134V66.799H82.44L82.5742 66.531V66.799H92.4348L93.7763 64.655L93.3739 66.799H115.644L115.979 65.057C117.925 66.33 120.474 67 123.425 67C126.041 67 128.456 66.464 130.535 65.526L130.267 66.799H161.526L161.593 66.531C163.068 66.866 164.544 67.067 166.02 67.067C166.892 67.067 167.831 67 168.703 66.799H180.643L181.515 64.923H182.32L182.588 66.799H219.347L221.158 57.218H220.488L220.756 55.878H221.226L223.037 46.297H222.031C222.835 45.56 223.439 44.555 223.64 43.483C223.909 42.21 223.573 40.87 222.701 39.865C222.5 39.597 222.232 39.396 221.963 39.195C224.848 36.18 226.927 32.562 227.665 28.542C228.671 23.45 227.531 18.894 224.579 15.209ZM203.316 56.414H202.175L203.852 47.503C204.255 47.436 204.657 47.369 204.993 47.369L203.316 56.414ZM177.021 27.403C176.887 28.006 176.82 28.609 176.752 29.145C174.271 30.82 171.923 31.557 169.441 31.557C167.764 31.557 166.288 31.021 165.55 30.083C165.148 29.547 164.947 29.011 165.081 28.274C165.55 25.996 168.636 23.986 171.722 23.986C173.667 23.986 175.478 24.656 177.289 26.063C177.222 26.532 177.088 26.934 177.021 27.403ZM179.503 46.23L178.295 48.24L177.289 47.704C176.618 47.302 175.948 47.034 175.21 46.766C175.746 46.632 176.216 46.498 176.685 46.364L178.094 45.828L179.503 39.731C179.704 39.999 179.838 40.267 180.106 40.535C182.186 43.081 185.204 45.024 188.827 46.23H179.503ZM191.778 47.034L191.309 49.58L190.638 46.766C191.04 46.9 191.376 46.967 191.778 47.034ZM203.584 24.321C205.127 24.321 206.267 24.723 206.871 25.46C207.407 26.13 207.407 27.001 207.273 27.604C206.804 30.083 204.255 31.825 201.102 31.825C199.559 31.825 198.352 31.423 197.748 30.686C197.346 30.217 197.211 29.48 197.413 28.609C197.748 26.465 200.029 24.321 203.584 24.321ZM133.822 48.039C133.42 47.771 132.883 47.503 132.414 47.235H133.956L133.822 48.039ZM125.303 56.414C125.102 56.615 124.767 56.682 124.431 56.749C124.632 56.615 124.901 56.481 125.303 56.414ZM122.888 24.522L121.077 30.552C120.943 28.944 120.474 27.47 119.602 26.197C119.266 25.661 118.797 25.192 118.327 24.723L122.888 24.522ZM69.8293 27.537C69.3597 30.016 66.8107 31.758 63.6581 31.758C62.1152 31.758 60.9078 31.356 60.3041 30.619C59.9017 30.15 59.7675 29.413 59.9687 28.542C60.3712 26.398 62.6519 24.254 66.207 24.254C67.7498 24.254 68.8902 24.656 69.4939 25.393C69.9634 26.063 69.9634 26.934 69.8293 27.537ZM91.0932 47.235L91.0261 47.369V47.235H91.0932ZM118.461 39.128L116.315 46.23H108.064C112.29 44.823 116.046 42.478 118.461 39.128ZM119.333 47.302H119.803C119.602 47.369 119.467 47.436 119.333 47.503V47.302ZM30.6554 28.743C28.3077 28.743 26.2953 27.939 25.222 26.666C24.6183 25.929 24.4171 25.058 24.6183 24.12C25.222 21.038 29.3138 18.425 33.6069 18.425C36.4912 18.425 39.1073 19.497 41.7234 21.708C41.0526 22.981 40.516 24.321 40.1135 25.728C36.8266 27.805 33.8752 28.743 30.6554 28.743ZM79.1532 43.282L81.8363 44.488C83.3121 45.158 84.989 45.694 86.666 46.23H81.7022L81.1656 47.302L81.0985 46.23H72.4453C74.8602 45.493 77.1408 44.488 79.1532 43.282ZM144.421 56.414L146.366 46.23H136.908L143.549 24.455L145.561 24.522C145.158 25.527 144.89 26.532 144.689 27.604C143.75 32.428 144.89 37.118 147.909 40.803C149.921 43.215 152.604 45.024 155.824 46.23H147.506L145.561 56.414H144.421ZM39.3756 45.493L40.7843 45.024L42.0588 39.731C42.26 39.999 42.4612 40.267 42.6625 40.535C44.7419 43.081 47.7604 45.024 51.3827 46.23H36.3571C37.4974 46.029 38.5036 45.761 39.3756 45.493ZM209.889 46.23C211.097 45.828 212.304 45.426 213.444 44.89C213.579 45.292 213.78 45.694 214.115 46.029L214.316 46.23H209.889Z" fill="white"/>
<path d="M78.4821 48.9771L79.0188 57.9551H79.1529C79.4212 57.0171 79.7566 56.0791 80.2262 55.2081L83.3118 48.9771H88.3427L89.0806 57.9551H89.2147C89.483 57.0841 89.7513 56.1461 90.1538 55.2751L93.1723 48.9771H100.014L90.7575 63.9851H85.19L84.6534 55.8111H84.4521C84.2509 56.6151 84.0497 57.352 83.7143 58.0891L80.7628 63.9851H75.1282L71.6401 48.9771" fill="#0054A5"/>
<path d="M99.6788 48.9771H105.984L105.045 54.069H109.07L110.009 48.9771H116.314L113.497 63.9851H107.125L108.131 58.7591H104.106L103.1 63.9851H96.7944" fill="#0054A5"/>
<path d="M134.828 56.548C133.889 61.372 128.858 64.253 123.357 64.253C117.857 64.253 113.899 61.372 114.838 56.548C115.71 51.791 120.808 48.776 126.309 48.776C131.809 48.709 135.767 51.791 134.828 56.548ZM121.479 56.615C121.144 58.357 122.351 59.496 124.296 59.496C126.309 59.496 127.919 58.29 128.254 56.615C128.589 55.007 127.516 53.667 125.437 53.667C123.29 53.667 121.747 55.007 121.479 56.615Z" fill="#0054A5"/>
<path d="M136.304 48.9771H142.878L140.932 59.1611H146.433L145.494 63.9851H133.419" fill="#0054A5"/>
<path d="M161.995 58.6249L162.263 58.8259C163.269 59.5629 164.611 60.2329 166.087 60.2329C166.757 60.2329 167.831 60.0319 167.965 59.3619C168.099 58.6919 167.227 58.6249 166.69 58.5579L165.416 58.3569C162.934 57.9549 160.989 56.7489 161.458 54.3369C162.129 50.7859 166.422 48.7759 170.38 48.7759C172.459 48.7759 174.27 49.1779 175.88 50.1159L173.398 53.9349C172.392 53.2649 171.252 52.7959 169.776 52.7959C169.172 52.7959 168.3 52.9969 168.233 53.5999C168.099 54.1359 168.904 54.2699 169.441 54.3369L170.849 54.6049C173.532 55.1409 175.276 56.3469 174.807 58.8929C174.136 62.5109 169.843 64.2529 165.952 64.2529C163.672 64.2529 161.123 63.7169 159.245 62.8459" fill="#0054A5"/>
<path d="M184.533 58.5581L184.265 55.8781C184.198 55.2081 184.198 54.6051 184.198 53.9351H183.93L181.85 58.4911M178.832 63.9851H171.855L180.978 48.9771H188.223L191.778 63.9851H184.802L184.533 62.109H179.57L178.832 63.9851Z" fill="#0054A5"/>
<path d="M194.125 48.9771H200.699L198.754 59.1611H204.254L203.382 63.9851H191.308" fill="#0054A5"/>
<path d="M207.474 48.9771H219.615L218.811 53.064H213.31L213.042 54.5381H218.073L217.335 58.4241H212.237L211.968 59.8981H217.737L216.932 63.9851H204.59" fill="#0054A5"/>
<path d="M118.394 21.9759L126.644 21.6409L119.668 44.5549H134.559L141.536 21.6409L149.652 21.9759L152.939 11.0549H121.68" fill="#D91A32"/>
<path d="M87.5374 27.872C85.458 38.592 74.0546 45.024 61.578 45.024C49.1014 45.024 40.18 38.592 42.2594 27.872C44.2718 17.353 55.8093 10.519 68.2859 10.519C80.6954 10.519 89.6169 17.353 87.5374 27.872ZM57.2179 28.073C56.4801 31.892 59.0961 34.505 63.6575 34.505C68.1517 34.505 71.8411 31.892 72.5789 28.073C73.2497 24.522 70.902 21.574 66.2065 21.574C61.4439 21.574 57.9558 24.522 57.2179 28.073Z" fill="#D91A32"/>
<path d="M82.9766 42.0089C87.2025 43.8849 92.9713 45.0909 98.1363 45.0909C106.991 45.0909 116.65 41.1379 118.193 33.1649C119.266 27.4699 115.241 24.7229 109.204 23.5839L105.985 22.9809C104.911 22.7799 103.1 22.5789 103.301 21.3729C103.57 19.9659 105.515 19.5639 106.857 19.5639C110.076 19.5639 112.692 20.7029 114.973 22.1099L120.675 13.5339C117.052 11.5239 112.961 10.5859 108.265 10.5859C99.3437 10.5859 89.6844 15.0079 88.1416 22.9809C87.1354 28.2069 91.4955 31.0209 97.1301 31.8249L100.015 32.2939C101.356 32.4949 103.234 32.6289 102.966 34.1699C102.698 35.7109 100.216 36.1799 98.8071 36.1799C95.3861 36.1799 92.4346 34.7729 90.0869 33.0979L89.4161 32.6289" fill="#D91A32"/>
<path d="M181.917 11.926C178.966 11.055 175.545 10.519 172.191 10.519C160.184 10.519 149.317 18.358 147.372 28.073C145.493 37.587 153.208 45.024 164.879 45.024C167.562 45.024 173.13 44.622 175.746 43.684L178.63 31.155C175.88 33.031 172.929 34.237 169.508 34.237C165.08 34.237 161.726 31.423 162.464 27.738C163.202 24.12 167.361 21.239 171.788 21.239C175.142 21.239 177.825 22.78 179.905 24.589" fill="#D91A32"/>
<path d="M205.73 10.519C193.321 10.519 181.783 17.353 179.704 27.872C177.624 38.592 186.546 45.024 199.022 45.024C211.499 45.024 222.902 38.592 224.982 27.872C226.994 17.353 218.14 10.519 205.73 10.519ZM203.584 21.574C208.279 21.574 210.694 24.522 209.956 28.073C209.218 31.892 205.529 34.505 201.035 34.505C196.54 34.505 193.857 31.892 194.595 28.073C195.333 24.522 198.821 21.574 203.584 21.574Z" fill="#D91A32"/>
<path d="M46.1504 4.42207C42.394 3.35007 38.2351 2.74707 34.0092 2.74707C19.0506 2.74707 5.43369 12.1941 3.08594 23.9861C0.80527 35.5101 10.3975 44.4881 24.9535 44.4881C28.2404 44.4881 35.2836 44.0191 38.5034 42.8801L42.0586 27.7381C38.5705 30.0161 34.8812 31.4901 30.6552 31.4901C25.0877 31.4901 20.9959 28.0731 21.8679 23.5841C22.74 19.1621 27.9721 15.6781 33.5396 15.6781C37.7655 15.6781 41.0524 17.5541 43.6014 19.7651" fill="#D91A32"/>
<path d="M215.792 42.88C215.993 41.741 217.335 40.803 218.743 40.803C220.152 40.803 221.091 41.741 220.89 42.88C220.688 44.086 219.347 45.024 217.938 45.024C216.53 45.024 215.591 44.086 215.792 42.88ZM220.219 42.88C220.42 41.942 219.749 41.339 218.609 41.339C217.536 41.339 216.597 41.942 216.463 42.88C216.261 43.818 216.932 44.421 218.072 44.421C219.146 44.488 220.085 43.818 220.219 42.88ZM219.347 44.019H218.676L218.274 43.081H217.871L217.67 44.019H217.133L217.536 41.808H218.81C219.347 41.808 219.682 41.942 219.615 42.478C219.548 42.88 219.213 43.081 218.877 43.081L219.347 44.019ZM218.542 42.679C218.81 42.679 219.079 42.679 219.079 42.411C219.146 42.21 218.877 42.21 218.609 42.21H218.005L217.938 42.612H218.542V42.679Z" fill="#D91A32"/>
<path d="M4.15918 64.052H73.7196V63.985H73.6526L72.7805 60.166H4.15918" fill="#0054A5"/>
<path d="M4.15918 58.558H72.4451L71.506 54.739H4.15918" fill="#0054A5"/>
<path d="M4.15918 53.064H71.1707L70.8353 51.6571L70.2316 48.9771H4.15918" fill="#0054A5"/>
<path d="M149.586 48.9771H161.727L160.989 53.064H155.421L155.153 54.5381H160.184L159.446 58.4241H154.415L154.147 59.8981H159.849L159.044 63.9851H146.701" fill="#0054A5"/>
</g>
<defs>
<clipPath id="clip0_349_2020">
<rect width="228" height="67" fill="white"/>
</clipPath>
</defs>
</svg>
