<svg width="228" height="56" viewBox="0 0 228 56" fill="none" xmlns="http://www.w3.org/2000/svg">
<g clip-path="url(#clip0_349_2042)">
<path d="M23.3429 18.9781V3.86694H0V27.4224C0 40.4004 10.7668 50.9779 23.9761 50.9779H47.9522V28.0445H32.5712C27.5049 28.0445 23.3429 24.0447 23.3429 18.9781Z" fill="#ED1C24"/>
<path d="M31.5763 13.9115V3.86694H24.7002V18.9781C24.7002 23.2448 28.229 26.7112 32.5714 26.7112H47.9524V19.9557H37.6382C34.3812 19.9557 31.5763 17.2892 31.5763 13.9115Z" fill="#F8971D"/>
<path d="M39.8097 8.93354V3.86694H32.9331V13.9115C32.9331 16.4893 35.1043 18.6225 37.7282 18.6225H48.0424V11.867H42.8858C41.1668 11.9557 39.8097 10.5333 39.8097 8.93354Z" fill="#F8971D"/>
<path d="M41.167 3.86694V8.93354C41.167 9.91121 41.9811 10.6224 42.886 10.6224H48.0431V3.86694H41.167Z" fill="#F8971D"/>
<path d="M93.462 11.6891V3.51123H56.6381V12.222H80.5239L56.0951 42.5334L56.0049 42.6221V51.1556H93.5522V42.5334H68.6712L93.462 11.6891Z" fill="black"/>
<path d="M126.124 21.7331C124.495 19.333 122.414 17.6441 119.881 16.4887C117.348 15.4219 114.543 14.7998 111.467 14.7998C106.219 14.7998 101.877 16.4887 98.6192 19.6886C95.3621 22.9777 93.6431 27.6887 93.6431 33.7329C93.6431 40.2219 95.4528 44.9329 99.1621 47.8664C102.781 50.7107 107.033 52.2218 111.829 52.2218C117.619 52.2218 122.143 50.5329 125.31 47.0661C127.391 44.9329 128.567 42.7993 128.839 40.6662V40.4884H119.067V40.5771C118.525 41.5547 117.891 42.3551 117.167 42.9771C115.9 44.0444 114.181 44.5778 112.1 44.5778C110.11 44.5778 108.39 44.1335 107.033 43.2445C104.771 41.9113 103.595 39.5112 103.414 36.1335H129.381V35.9557C129.471 32.9335 129.291 30.6221 129.11 29.0224C128.567 26.2667 127.662 23.8667 126.124 21.7331ZM103.595 29.8223C103.957 27.6891 104.771 25.9111 106.038 24.6665C107.305 23.3333 109.114 22.7112 111.467 22.7112C113.638 22.7112 115.448 23.3333 116.896 24.5779C118.344 25.8225 119.158 27.5113 119.339 29.8223H103.595Z" fill="black"/>
<path d="M160.686 19.5113C159.51 17.9111 158.062 16.7556 156.253 16.0444C154.443 15.3332 152.453 14.889 150.191 14.889C148.201 14.889 146.301 15.3332 144.581 16.1336C142.952 16.9334 141.414 18.178 140.148 20.0447V3.68896H130.558V51.1555H140.148V32.0446C140.148 29.1111 140.781 26.8002 142.048 25.2C143.315 23.5998 145.124 22.7999 147.477 22.7999C149.739 22.7999 151.367 23.5998 152.182 25.2C152.815 26.3554 153.177 27.8665 153.177 29.7332V51.1555H162.948V30.4444C162.948 27.3331 162.858 25.0222 162.586 23.6889C162.314 22.1778 161.681 20.8446 160.686 19.5113Z" fill="black"/>
<path d="M188.824 24.7559V15.0669H188.643C188.191 15.0669 187.919 15.0669 187.829 14.9783C187.739 14.9783 187.558 14.9783 187.377 14.9783C184.572 14.9783 182.22 15.6895 180.501 17.2005C179.506 18.0004 178.329 19.5115 176.972 21.5559V15.8668H167.743V51.1557H177.424V34.267C177.424 31.5113 177.786 29.4669 178.51 28.1336C179.777 25.8227 182.22 24.5781 185.929 24.5781C186.2 24.5781 186.562 24.5781 187.015 24.5781C187.467 24.5781 188.01 24.6667 188.553 24.6667L188.824 24.7559Z" fill="black"/>
<path d="M210.086 29.7332C204.567 28.5777 201.31 27.6887 200.405 27.2444C199.5 26.8002 199.138 26.089 199.138 25.1113C199.138 24.3114 199.5 23.6002 200.405 23.0668C201.219 22.4448 202.667 22.1778 204.657 22.1778C207.1 22.1778 208.819 22.7999 209.814 23.9558C210.357 24.5779 210.628 25.556 210.809 26.7115V26.8002H220.4V26.6224C219.948 22.3556 218.319 19.2444 215.514 17.4668C212.709 15.6888 209 14.8003 204.566 14.8003C199.862 14.8003 196.152 15.9558 193.528 18.3558C190.904 20.6668 189.638 23.5116 189.638 26.8002C189.638 29.5558 190.452 31.689 192.171 33.2C193.8 34.7111 196.695 35.9557 200.766 36.9334C206.376 38.2666 209.633 39.1556 210.447 39.689C211.262 40.2224 211.714 40.9336 211.714 41.9113C211.714 42.889 211.171 43.6893 210.176 44.2222C209.09 44.7556 207.643 45.0221 205.833 45.0221C202.757 45.0221 200.585 44.4 199.5 43.2441C198.867 42.622 198.414 41.4661 198.233 39.8664V39.7777H188.552V39.9555C188.552 43.6002 189.909 46.6223 192.623 48.9332C195.338 51.2442 199.5 52.4888 205.109 52.4888C210.628 52.4888 214.79 51.3333 217.414 49.1997C220.038 46.9774 221.395 44.1331 221.395 40.5776C221.395 37.911 220.49 35.6888 218.59 33.9108C216.69 31.9554 213.795 30.6222 210.086 29.7332Z" fill="black"/>
<path d="M218.862 16.7556H220.31V20.6668H221.124V16.7556H222.662V16.0444H218.862V16.7556Z" fill="black"/>
<path d="M226.914 16.0444L225.648 19.6886L224.29 16.0444H223.205V20.6668H223.929V17.1112L225.286 20.6668H225.919L227.276 17.1112V20.6668H228V16.0444H226.914Z" fill="black"/>
</g>
<defs>
<clipPath id="clip0_349_2042">
<rect width="228" height="56" fill="white"/>
</clipPath>
</defs>
</svg>
