<svg width="228" height="39" viewBox="0 0 228 39" fill="none" xmlns="http://www.w3.org/2000/svg">
<g clip-path="url(#clip0_349_2089)">
<path d="M45.395 0.240479H52.0146C55.4137 0.240479 58.2941 1.6874 58.2941 5.50513C58.2941 7.79576 57.4144 8.7502 55.3738 9.44311V9.56337C55.7288 9.81074 56.0403 10.1159 56.2953 10.4663L59.5747 15.3892H53.2553L50.8556 10.5273H50.7549V15.3892H45.395V0.240479ZM50.7549 6.95014H51.1349C52.0355 6.95014 52.9342 6.81079 52.9342 5.68647C52.9342 4.52015 52.1153 4.3789 51.1748 4.3789H50.7549V6.95014Z" fill="#194B9F"/>
<path d="M60.1538 0.240479H70.2922V4.3789H65.6733V5.82581H69.8913V9.7638H65.6733V11.2508H70.4537V15.3892H60.1538V0.240479Z" fill="#194B9F"/>
<path d="M76.8513 15.3892H71.0601L76.2927 0.240479H82.3518L87.7307 15.3892H81.9319L81.4322 13.5014H77.2921L76.8513 15.3892ZM80.4727 9.90506L79.8324 7.23265C79.6709 6.58936 79.5721 5.92698 79.4714 5.2837H79.2814L78.2801 9.90506H80.4727Z" fill="#194B9F"/>
<path d="M88.5703 0.240479H94.0499V10.5273H98.6498V15.3892H88.5703V0.240479Z" fill="#194B9F"/>
<path d="M117.591 6.38907C116.71 5.56635 115.609 4.86198 114.371 4.86198C113.982 4.85846 113.596 4.93213 113.235 5.07876C112.875 5.2254 112.547 5.44212 112.27 5.71648C111.993 5.99085 111.772 6.31746 111.621 6.67757C111.47 7.03769 111.392 7.42422 111.39 7.81499C111.39 9.48334 112.809 10.768 114.449 10.768C115.71 10.768 116.71 10.2259 117.591 9.36308L117.43 15.0286C116.548 15.4504 114.509 15.6299 113.531 15.6299C109.231 15.6299 105.87 12.2741 105.87 7.95625C105.859 6.91185 106.056 5.87577 106.447 4.9083C106.839 3.94083 107.419 3.0613 108.152 2.3209C108.885 1.5805 109.758 0.994018 110.718 0.595586C111.679 0.197155 112.71 -0.00526605 113.749 0.000104116C115.002 0.0035687 116.245 0.2138 117.43 0.622394L117.591 6.38907Z" fill="#194B9F"/>
<path d="M123.825 15.3892H118.024L123.265 0.240479H129.322L134.71 15.3892H128.904L128.404 13.5014H124.26L123.821 15.3892M127.431 9.90506L126.791 7.23265C126.63 6.58936 126.531 5.92698 126.43 5.2837H126.24L125.241 9.90506H127.431Z" fill="#194B9F"/>
<path d="M135.47 0.240479H140.729L145.65 8.63948H145.808C145.582 7.37199 145.35 6.06633 145.35 4.77212V0.240479H150.59V15.3892H145.35L140.522 7.43308H140.363C140.562 8.43247 140.675 9.4473 140.701 10.4663V15.3892H135.47V0.240479Z" fill="#194B9F"/>
<path d="M157.13 15.3892H151.322L156.56 0.240479H162.621L168 15.3892H162.199L161.701 13.5014H157.559L157.13 15.3892ZM160.74 9.90506L160.102 7.23265C159.94 6.58936 159.839 5.92698 159.739 5.2837H159.539L158.542 9.90506H160.74Z" fill="#194B9F"/>
<path d="M168.879 0.240479H174.46C179.517 0.240479 183.39 2.47194 183.39 8.03628C183.39 12.5374 180.228 15.3892 175.809 15.3892H168.879V0.240479ZM174.359 10.8499H174.699C176.519 10.8499 177.918 10.0043 177.918 8.01528C177.918 5.8869 176.7 4.9821 174.699 4.9821H174.359V10.8499Z" fill="#194B9F"/>
<path d="M190.441 0.240479H184.961V15.3892H190.441V0.240479Z" fill="#194B9F"/>
<path d="M197.121 15.3892H191.33L196.57 0.240479H202.629L208.008 15.3892H202.209L201.708 13.5014H197.568L197.129 15.3892M200.75 9.90506L200.108 7.23265C199.948 6.58936 199.848 5.92698 199.749 5.2837H199.559L198.55 9.90506H200.75Z" fill="#194B9F"/>
<path d="M208.759 0.240479H214.018L218.939 8.63948H219.099C218.878 7.37199 218.639 6.06633 218.639 4.77976V0.240479H223.879V15.3892H218.639L213.82 7.43308H213.661C213.86 8.43256 213.974 9.44732 214.001 10.4663V15.3892H208.759V0.240479Z" fill="#194B9F"/>
<path d="M46.8709 31.6281L47.2338 31.9163C48.5106 32.9108 50.0439 33.7202 51.6836 33.7202C52.3866 33.7202 53.5057 33.4319 53.5057 32.5424C53.5057 31.6529 52.569 31.5765 51.9173 31.4448L50.4866 31.1833C47.7031 30.6889 45.3566 29.0377 45.3566 25.9549C45.3566 21.2744 49.5993 18.6592 53.8667 18.6592C56.0591 18.6335 58.2143 19.2289 60.0854 20.3772L58.1588 25.4224C56.9371 24.5844 55.5577 23.9315 54.0206 23.9315C53.3993 23.9315 52.4854 24.1682 52.4854 24.9776C52.4854 25.7087 53.3708 25.8156 53.918 25.9454L55.5311 26.3119C58.5502 26.9914 60.7371 28.614 60.7371 31.9583C60.7371 36.6656 56.4678 38.9906 52.227 38.9906C49.6094 38.9583 47.0317 38.3422 44.6802 37.1867L46.8671 31.6185" fill="#EE3124"/>
<path d="M80.3701 18.9741V30.6335C80.3701 36.3849 76.7791 39 71.2881 39C65.7971 39 62.2061 36.3849 62.2061 30.6335V18.9741H69.3368V29.9539C69.3368 31.4982 69.3881 32.8573 71.2881 32.8573C73.1881 32.8573 73.2394 31.4982 73.2394 29.9539V18.9741H80.3701Z" fill="#EE3124"/>
<path d="M82.1748 18.9741H91.1998C95.7788 18.9741 99.1627 21.3258 99.1627 26.2144C99.1627 30.2441 96.6642 32.7523 92.6837 32.7523H89.0452V38.6851H82.1748V18.9741ZM89.0452 27.7854H89.7463C90.9965 27.7854 92.3493 27.5755 92.3493 25.9816C92.3493 24.4373 90.8939 24.3609 89.7216 24.3609H89.0452V27.7854Z" fill="#EE3124"/>
<path d="M100.82 18.9741H114.013V24.3609H108.002V26.2412H113.493V31.3665H108.002V33.3021H114.222V38.6851H100.82V18.9741Z" fill="#EE3124"/>
<path d="M116.056 18.9741H124.668C129.092 18.9741 132.838 20.8563 132.838 25.825C132.838 28.8048 131.698 30.0589 129.038 30.9484V31.1145C129.501 31.4351 129.906 31.832 130.237 32.2884L134.505 38.6927H126.281L123.16 32.3686H123.029V38.6927H116.056V18.9741ZM123.029 27.7053H123.523C124.695 27.7053 125.865 27.5144 125.865 26.0579C125.865 24.5423 124.799 24.3609 123.576 24.3609H123.029V27.7053Z" fill="#EE3124"/>
<path d="M137.18 31.6281L137.545 31.9163C138.818 32.9108 140.353 33.7202 141.995 33.7202C142.696 33.7202 143.815 33.432 143.815 32.5424C143.815 31.6529 142.878 31.5765 142.228 31.4448L140.796 31.1833C138.012 30.6889 135.666 29.0378 135.666 25.9549C135.666 21.2744 139.907 18.6593 144.176 18.6593C146.368 18.6332 148.524 19.2287 150.395 20.3772L148.47 25.4224C147.246 24.5844 145.867 23.9315 144.332 23.9315C143.709 23.9315 142.797 24.1682 142.797 24.9776C142.797 25.7087 143.682 25.8156 144.229 25.9454L145.842 26.3119C148.867 27.001 151.05 28.6331 151.05 31.9679C151.05 36.6751 146.783 39.0001 142.542 39.0001C139.924 38.9679 137.347 38.3517 134.995 37.1962L137.18 31.6281Z" fill="#EE3124"/>
<path d="M151.882 18.9741H166.871V25.3803L162.94 25.197V38.6851H155.81V25.197L151.882 25.3803V18.9741Z" fill="#EE3124"/>
<path d="M189.785 28.8831C189.785 35.209 184.917 39 178.934 39C172.951 39 168.082 35.209 168.082 28.8831C168.082 22.6869 172.974 18.6592 178.934 18.6592C184.895 18.6592 189.785 22.6869 189.785 28.8831ZM175.265 28.988C175.265 31.2348 176.774 32.7771 178.934 32.7771C181.095 32.7771 182.601 31.2348 182.601 28.988C182.601 26.8883 181.197 25.1436 178.934 25.1436C176.671 25.1436 175.265 26.894 175.265 28.988Z" fill="#EE3124"/>
<path d="M191.343 18.9741H199.958C204.381 18.9741 208.128 20.8563 208.128 25.825C208.128 28.8048 206.988 30.0589 204.328 30.9484V31.1145C204.791 31.4351 205.196 31.832 205.527 32.2884L209.794 38.6927H201.571L198.449 32.3686H198.318V38.6927H191.343V18.9741ZM198.318 27.7053H198.814C199.986 27.7053 201.155 27.5144 201.155 26.0579C201.155 24.5423 200.089 24.3609 198.875 24.3609H198.328L198.318 27.7053Z" fill="#EE3124"/>
<path d="M210.476 18.9741H223.67V24.3609H217.658V26.2412H223.149V31.3665H217.658V33.3021H223.877V38.6851H210.476V18.9741Z" fill="#EE3124"/>
<path d="M46.8709 31.6281L47.2338 31.9163C48.5106 32.9108 50.0439 33.7202 51.6836 33.7202C52.3866 33.7202 53.5057 33.4319 53.5057 32.5424C53.5057 31.6529 52.569 31.5765 51.9173 31.4448L50.4866 31.1833C47.7031 30.6889 45.3566 29.0377 45.3566 25.9549C45.3566 21.2744 49.5993 18.6592 53.8667 18.6592C56.0591 18.6335 58.2143 19.2289 60.0854 20.3772L58.1588 25.4224C56.9371 24.5844 55.5577 23.9315 54.0206 23.9315C53.3993 23.9315 52.4854 24.1682 52.4854 24.9776C52.4854 25.7087 53.3708 25.8156 53.918 25.9454L55.5311 26.3119C58.5502 26.9914 60.7371 28.614 60.7371 31.9583C60.7371 36.6656 56.4678 38.9906 52.227 38.9906C49.6094 38.9583 47.0317 38.3422 44.6802 37.1867L46.8671 31.6185" fill="#EE3124"/>
<path d="M80.3701 18.9741V30.6335C80.3701 36.3849 76.7791 39 71.2881 39C65.7971 39 62.2061 36.3849 62.2061 30.6335V18.9741H69.3368V29.9539C69.3368 31.4982 69.3881 32.8573 71.2881 32.8573C73.1881 32.8573 73.2394 31.4982 73.2394 29.9539V18.9741H80.3701Z" fill="#EE3124"/>
<path d="M82.1748 18.9741H91.1998C95.7788 18.9741 99.1627 21.3258 99.1627 26.2144C99.1627 30.2441 96.6642 32.7523 92.6837 32.7523H89.0452V38.6851H82.1748V18.9741ZM89.0452 27.7854H89.7463C90.9965 27.7854 92.3493 27.5755 92.3493 25.9816C92.3493 24.4373 90.8939 24.3609 89.7216 24.3609H89.0452V27.7854Z" fill="#EE3124"/>
<path d="M100.74 18.9741H113.935V24.3609H107.924V26.2412H113.415V31.3665H107.924V33.3021H114.142V38.6851H100.74V18.9741Z" fill="#EE3124"/>
<path d="M115.98 18.9741H124.591C129.016 18.9741 132.761 20.8563 132.761 25.825C132.761 28.8048 131.621 30.0589 128.961 30.9484V31.1145C129.423 31.4351 129.829 31.832 130.16 32.2884L134.427 38.6927H126.206L123.082 32.361H122.953V38.6851H115.98V18.9741ZM122.953 27.7053H123.447C124.617 27.7053 125.788 27.5144 125.788 26.0579C125.788 24.5423 124.722 24.3609 123.508 24.3609H122.961L122.953 27.7053Z" fill="#EE3124"/>
<path d="M137.106 31.6281L137.471 31.9163C138.745 32.9108 140.281 33.7202 141.92 33.7202C142.623 33.7202 143.741 33.4319 143.741 32.5424C143.741 31.6529 142.804 31.5765 142.154 31.4448L140.723 31.1833C137.938 30.6889 135.593 29.0377 135.593 25.9549C135.593 21.2744 139.836 18.6593 144.102 18.6593C146.295 18.6335 148.45 19.2289 150.322 20.3772L148.396 25.4224C147.174 24.5844 145.793 23.9315 144.257 23.9315C143.632 23.9315 142.722 24.1682 142.722 24.9776C142.722 25.7087 143.608 25.8156 144.155 25.9454L145.768 26.3119C148.785 26.9914 150.972 28.614 150.972 31.9583C150.972 36.6656 146.706 38.9906 142.464 38.9906C139.846 38.9583 137.269 38.3422 134.917 37.1867L137.102 31.6185" fill="#EE3124"/>
<path d="M189.708 28.8831C189.708 35.209 184.84 39 178.855 39C172.87 39 168.004 35.209 168.004 28.8831C168.004 22.6869 172.896 18.6592 178.855 18.6592C184.813 18.6592 189.708 22.6869 189.708 28.8831ZM175.186 28.988C175.186 31.2348 176.706 32.7771 178.855 32.7771C181.004 32.7771 182.526 31.2348 182.526 28.988C182.526 26.8883 181.122 25.1436 178.855 25.1436C176.588 25.1436 175.18 26.894 175.18 28.988H175.186Z" fill="#EE3124"/>
<path d="M191.267 18.9741H199.88C204.303 18.9741 208.05 20.8563 208.05 25.825C208.05 28.8048 206.91 30.0589 204.25 30.9484V31.1145C204.713 31.4342 205.117 31.8313 205.447 32.2884L209.716 38.6927H201.495L198.371 32.3686H198.24V38.6927H191.267V18.9741ZM198.24 27.7053H198.74C199.91 27.7053 201.082 27.5144 201.082 26.0579C201.082 24.5423 200.013 24.3609 198.791 24.3609H198.244L198.24 27.7053Z" fill="#EE3124"/>
<path d="M210.476 18.9741H223.67V24.3609H217.658V26.2412H223.149V31.3665H217.658V33.3021H223.877V38.6851H210.476V18.9741Z" fill="#EE3124"/>
<path d="M38.2641 0.242432H0V19.4704C0.00151132 24.5667 2.01751 29.4537 5.60471 33.0569C9.19191 36.6601 14.0566 38.6845 19.1292 38.685H38.266V0.242432" fill="#194B9F"/>
<path d="M26.8964 15.1107L30.0998 14.7041L29.3303 18.541L30.5558 19.4438L25.4049 24.2485L25.6215 26.3158L20.8601 25.9149L20.8316 27.2244L20.9114 31.84L19.7486 31.861L18.5402 31.8801L18.7112 27.1461V25.9435L13.8663 26.352L14.2462 24.2427L8.96045 19.5927L10.0263 18.4837L9.22835 14.3128L12.6407 15.0668L13.3703 13.5512L16.4559 16.5233L15.4071 9.98352L17.7099 10.686L19.8075 6.89307L21.8234 10.7146L23.9951 10.0618L22.9938 16.1931L26.1231 13.5416L26.8964 15.1107Z" fill="#EE3124"/>
<path d="M224.819 1.85553C224.819 1.43179 224.987 1.0254 225.285 0.725774C225.583 0.426143 225.988 0.257813 226.41 0.257812C226.831 0.257813 227.236 0.426143 227.534 0.725774C227.832 1.0254 228 1.43179 228 1.85553C228 2.27927 227.832 2.68566 227.534 2.98529C227.236 3.28492 226.831 3.45325 226.41 3.45325C225.988 3.45325 225.583 3.28492 225.285 2.98529C224.987 2.68566 224.819 2.27927 224.819 1.85553ZM227.816 1.85553C227.816 1.4809 227.667 1.12161 227.404 0.856701C227.14 0.591795 226.783 0.442972 226.41 0.442972C226.037 0.442972 225.679 0.591795 225.415 0.856701C225.152 1.12161 225.004 1.4809 225.004 1.85553C225.004 2.23017 225.152 2.58946 225.415 2.85436C225.679 3.11927 226.037 3.26809 226.41 3.26809C226.783 3.26809 227.14 3.11927 227.404 2.85436C227.667 2.58946 227.816 2.23017 227.816 1.85553ZM225.72 0.954548H226.507C226.609 0.94644 226.713 0.959157 226.811 0.991945C226.909 1.02473 226.999 1.07693 227.077 1.14543C227.125 1.19602 227.163 1.25591 227.188 1.32152C227.212 1.38712 227.224 1.45708 227.221 1.52721V1.53675C227.225 1.64941 227.194 1.76056 227.132 1.85421C227.069 1.94785 226.979 2.01917 226.873 2.05787L227.278 2.64962H226.738L226.396 2.13232H226.189V2.64962H225.72V0.954548ZM226.499 1.77154C226.66 1.77154 226.754 1.6971 226.754 1.58066V1.55966C226.754 1.42413 226.651 1.35732 226.493 1.35732H226.191V1.76772L226.499 1.77154Z" fill="#194B9F"/>
</g>
<defs>
<clipPath id="clip0_349_2089">
<rect width="228" height="39" fill="white"/>
</clipPath>
</defs>
</svg>
