<svg width="228" height="50" viewBox="0 0 228 50" fill="none" xmlns="http://www.w3.org/2000/svg">
<g clip-path="url(#clip0_349_2057)">
<path d="M146.959 28.1394C148.526 19.9307 154.525 13.4425 163.39 13.0485C163.684 13.0159 163.98 13.0159 164.275 13.0485V22.1899C163.977 22.2076 163.682 22.2452 163.39 22.3024C157.001 23.3315 155.272 27.4158 154.525 31.9503C153.226 37.4576 147.316 43.2061 138.695 43.5277V34.5713C140.606 34.5911 142.466 33.9644 143.969 32.7949C145.472 31.6254 146.526 29.983 146.959 28.1394ZM139.393 13.539L132.411 26.7163L126.656 13.4505H117.247L127.224 36.1149L118.871 49.9998H128.702L148.355 13.547L139.393 13.539ZM73.134 34.6517C74.7424 34.62 76.2726 33.9583 77.3894 32.8115C78.5062 31.6648 79.1186 30.1264 79.0925 28.5333C79.0872 26.9483 78.4617 25.4269 77.3475 24.289C76.2334 23.1511 74.7173 22.4851 73.1177 22.4311C68.7746 22.4311 67.2484 25.4541 67.1591 28.7263C67.1779 30.2878 67.811 31.7806 68.9237 32.8871C70.0364 33.9936 71.5411 34.6267 73.1177 34.6517M72.8336 13.748C80.846 13.748 87.3485 20.3889 87.3485 28.5414C87.4028 32.4089 85.9044 36.1395 83.1827 38.9134C80.461 41.6873 76.7386 43.2776 72.8336 43.3347C65.0241 43.3347 58.5541 37.0556 58.2699 28.5414V28.4851C58.2699 28.3806 58.2699 27.4077 58.2699 26.9977V3.77854H66.8669V15.0344C68.7415 14.1727 70.7831 13.7255 72.8498 13.7239M119.277 31.9583C119.277 33.8959 115.218 43.5357 104.924 43.4955C92.9987 43.4955 89.3212 33.3573 89.3212 28.662C89.3212 24.642 91.5699 14.5922 103.219 13.3299C112.961 12.2687 118.643 21.1206 119.179 23.9345L102.781 33.7673L101.563 34.4748C101.458 34.5391 101.336 34.6678 101.563 34.8044C101.855 35.1743 104.81 36.2918 107.798 34.9009C109.071 34.243 110.116 33.2241 110.801 31.9744H119.277V31.9583ZM100.483 22.5115C98.527 23.83 97.0576 26.459 97.4798 28.7343C97.4798 28.7343 107.124 22.8331 108.09 22.3024C106.215 20.9437 102.903 20.9035 100.483 22.5275M13.759 21.8039C12.4764 29.1765 6.9643 34.1934 0.348145 33.7673C0.348145 36.0024 0.348145 41.8072 0.348145 44.3236C15.4719 44.7578 22.2667 32.6578 23.4925 25.8802C24.7183 19.1025 28.5338 12.4053 38.1049 10.3712C38.5854 10.2952 39.0714 10.2576 39.558 10.2587V-0.000200663C39.1191 -0.0617821 38.6736 -0.0617821 38.2348 -0.000200659C25.7493 1.13342 15.7723 9.87277 13.759 21.7477M42.107 34.6115C42.9015 34.6031 43.6865 34.4392 44.4168 34.1291C45.147 33.819 45.8081 33.3688 46.3619 32.8046C46.9158 32.2404 47.3515 31.5732 47.6439 30.8416C47.9363 30.1099 48.0796 29.3281 48.0656 28.5414C48.0656 25.5827 45.6302 22.2863 42.107 22.3105C38.1942 22.3105 36.1403 25.4058 36.1403 28.7424C36.1635 30.301 36.8 31.7891 37.9145 32.8898C39.0289 33.9905 40.5332 34.6169 42.107 34.6356M41.8148 13.7319C43.7556 13.7549 45.6727 14.1577 47.4558 14.9171C49.2389 15.6764 50.8528 16.7774 52.2048 18.1567C53.5567 19.536 54.62 21.1664 55.3335 22.9541C56.047 24.7418 56.3966 26.6515 56.3622 28.5735C56.3869 30.4899 56.0302 32.3923 55.3124 34.172C54.5947 35.9518 53.5299 37.5742 52.1791 38.9464C50.8282 40.3186 49.2176 41.4139 47.4393 42.1696C45.661 42.9253 43.7497 43.3267 41.8148 43.3508C34.0134 43.3508 27.5921 37.0476 27.2024 28.5735C27.1904 28.472 27.1904 28.3695 27.2024 28.268C27.2529 24.4454 28.8086 20.7934 31.5381 18.0902C34.2676 15.387 37.955 13.8462 41.8148 13.7962" fill="#49A547"/>
<path d="M177.515 6.60079C177.515 3.72251 179.618 2.07434 182.337 2.07434C183.494 2.05153 184.629 2.38592 185.584 3.03108L184.334 5.04909C183.786 4.62721 183.113 4.39557 182.418 4.38982C182.111 4.36268 181.801 4.39999 181.509 4.49931C181.217 4.59863 180.949 4.75775 180.723 4.96631C180.497 5.17486 180.318 5.42819 180.198 5.70979C180.077 5.9914 180.018 6.29498 180.024 6.60079C180.013 6.90926 180.069 7.21641 180.187 7.50189C180.306 7.78737 180.484 8.04468 180.711 8.25675C180.937 8.46883 181.206 8.63085 181.501 8.73207C181.795 8.8333 182.108 8.87142 182.418 8.84391C183.113 8.83817 183.786 8.60652 184.334 8.18464L185.584 10.2107C184.627 10.8525 183.493 11.1865 182.337 11.1674C179.618 11.1353 177.515 9.4871 177.515 6.60079Z" fill="#035536"/>
<path d="M185.235 8.08012C185.235 5.9978 186.51 5.02497 187.979 5.02497C188.343 5.00097 188.707 5.0741 189.032 5.23673C189.358 5.39936 189.633 5.64553 189.83 5.94956V5.20989H192.152V10.9504H189.83V10.2187C189.632 10.5207 189.356 10.7648 189.03 10.9259C188.705 11.087 188.342 11.1593 187.979 11.1353C186.51 11.1353 185.235 10.1705 185.235 8.08012ZM189.749 8.08012C189.726 7.81564 189.603 7.56941 189.405 7.39003C189.208 7.21065 188.949 7.11114 188.681 7.11114C188.413 7.11114 188.155 7.21065 187.957 7.39003C187.76 7.56941 187.637 7.81564 187.614 8.08012C187.606 8.22163 187.628 8.36326 187.679 8.49572C187.73 8.62819 187.808 8.74848 187.909 8.84871C188.011 8.94893 188.132 9.02682 188.266 9.07727C188.4 9.12771 188.543 9.14956 188.685 9.14139C188.827 9.14592 188.968 9.1215 189.1 9.06967C189.231 9.01783 189.351 8.93969 189.451 8.84011C189.55 8.74053 189.628 8.62165 189.68 8.49089C189.731 8.36014 189.755 8.22031 189.749 8.08012Z" fill="#035536"/>
<path d="M199.085 7.34841V10.9503H196.804V7.98356C196.804 7.30821 196.552 6.97858 195.992 6.97858C195.432 6.97858 195.066 7.32429 195.066 8.16848V10.9503H192.745V5.20981H194.985V6.07007C195.199 5.74254 195.495 5.47462 195.843 5.2917C196.191 5.10879 196.58 5.01695 196.974 5.02489C198.216 5.02489 199.085 5.7726 199.085 7.34841Z" fill="#035536"/>
<path d="M199.361 8.08012C199.361 5.9978 200.635 5.02497 202.105 5.02497C202.469 5.00097 202.832 5.0741 203.158 5.23673C203.483 5.39936 203.759 5.64553 203.956 5.94956V5.20989H206.269V10.9504H203.956V10.2187C203.758 10.5213 203.482 10.7658 203.156 10.927C202.831 11.0882 202.468 11.1601 202.105 11.1353C200.635 11.1353 199.361 10.1705 199.361 8.08012ZM203.874 8.08012C203.851 7.81564 203.729 7.56941 203.531 7.39003C203.333 7.21065 203.075 7.11114 202.807 7.11114C202.539 7.11114 202.281 7.21065 202.083 7.39003C201.885 7.56941 201.763 7.81564 201.739 8.08012C201.726 8.22671 201.744 8.37436 201.792 8.51369C201.84 8.65302 201.917 8.78099 202.017 8.88946C202.117 8.99794 202.239 9.08456 202.375 9.14382C202.511 9.20307 202.658 9.23367 202.807 9.23367C202.956 9.23367 203.102 9.20307 203.238 9.14382C203.374 9.08456 203.497 8.99794 203.597 8.88946C203.697 8.78099 203.774 8.65302 203.822 8.51369C203.869 8.37436 203.887 8.22671 203.874 8.08012Z" fill="#035536"/>
<path d="M211.181 5.94958V2.25928H213.502V10.9504H211.181V10.2188C210.981 10.5219 210.704 10.7668 210.377 10.928C210.05 11.0892 209.686 11.1608 209.322 11.1353C207.86 11.1353 206.578 10.1705 206.578 8.08015C206.578 5.98978 207.86 5.025 209.322 5.025C209.686 5.00124 210.051 5.07441 210.378 5.23695C210.705 5.39949 210.982 5.64551 211.181 5.94958ZM211.181 8.08015C211.181 7.78376 211.062 7.49951 210.85 7.28993C210.638 7.08035 210.351 6.96261 210.052 6.96261C209.753 6.96261 209.466 7.08035 209.254 7.28993C209.043 7.49951 208.924 7.78376 208.924 8.08015C208.924 8.37654 209.043 8.66079 209.254 8.87037C209.466 9.07995 209.753 9.19769 210.052 9.19769C210.351 9.19769 210.638 9.07995 210.85 8.87037C211.062 8.66079 211.181 8.37654 211.181 8.08015Z" fill="#035536"/>
<path d="M213.851 8.08004C213.851 5.99772 215.134 5.02489 216.595 5.02489C216.96 5.00113 217.325 5.0743 217.651 5.23684C217.978 5.39939 218.255 5.6454 218.454 5.94948V5.20981H220.776V10.9503H218.454V10.2187C218.255 10.5218 217.978 10.7667 217.651 10.9279C217.324 11.0891 216.959 11.1607 216.595 11.1352C215.093 11.1352 213.851 10.1704 213.851 8.08004ZM218.365 8.08004C218.365 7.80071 218.253 7.53282 218.053 7.3353C217.854 7.13778 217.583 7.02682 217.301 7.02682C217.019 7.02682 216.749 7.13778 216.549 7.3353C216.35 7.53282 216.238 7.80071 216.238 8.08004C216.238 8.35938 216.35 8.62727 216.549 8.82478C216.749 9.0223 217.019 9.13327 217.301 9.13327C217.583 9.13327 217.854 9.0223 218.053 8.82478C218.253 8.62727 218.365 8.35938 218.365 8.08004Z" fill="#035536"/>
<path d="M223.179 2.07422V4.06811L222.107 6.07808H221.295L221.928 4.06811H221.157V2.07422H223.179Z" fill="#035536"/>
<path d="M222.148 10.5242L222.887 8.91627C223.523 9.29375 224.241 9.51689 224.981 9.5675C225.355 9.5675 225.444 9.50318 225.444 9.38258C225.444 9.26199 225.322 9.19767 225.054 9.10119L224.177 8.81979C223.187 8.4982 222.554 8.0158 222.554 6.9867C222.554 5.81288 223.366 5.05713 225.208 5.05713C225.951 5.06865 226.689 5.16578 227.408 5.34656L226.905 7.04298C226.31 6.80281 225.679 6.66155 225.038 6.6249C224.786 6.6249 224.689 6.67314 224.689 6.7857C224.689 6.89826 224.738 6.93042 224.973 7.00278L226.012 7.34045C226.978 7.65401 227.636 8.08816 227.636 9.18159C227.636 10.5805 226.58 11.1674 224.965 11.1674C223.989 11.1654 223.026 10.9455 222.148 10.5242Z" fill="#035536"/>
<path d="M180.397 15.2757V16.6103H183.287V18.7248H180.397V21.788H178.01V13.0969H183.928V15.2757H180.397Z" fill="#035536"/>
<path d="M183.458 18.9178C183.458 16.8354 184.732 15.8626 186.201 15.8626C186.565 15.8386 186.929 15.9117 187.254 16.0744C187.58 16.237 187.856 16.4832 188.052 16.7872V16.0797H190.374V21.788H188.052V21.0564C187.854 21.3583 187.578 21.6024 187.252 21.7635C186.927 21.9246 186.564 21.9969 186.201 21.9729C184.732 21.9729 183.458 21.0081 183.458 18.9178ZM187.963 18.9178C187.961 18.7098 187.898 18.507 187.78 18.3348C187.662 18.1627 187.495 18.029 187.301 17.9505C187.106 17.872 186.893 17.8523 186.687 17.8938C186.481 17.9354 186.293 18.0363 186.145 18.1839C185.997 18.3315 185.896 18.5192 185.856 18.7233C185.816 18.9274 185.837 19.1387 185.918 19.3307C185.999 19.5227 186.135 19.6867 186.31 19.8021C186.484 19.9175 186.69 19.979 186.9 19.979C187.041 19.9848 187.183 19.9612 187.315 19.9098C187.447 19.8584 187.567 19.7803 187.667 19.6804C187.767 19.5806 187.845 19.4612 187.896 19.3299C187.947 19.1986 187.97 19.0583 187.963 18.9178Z" fill="#035536"/>
<path d="M190.959 16.0797H193.207V16.9882C193.382 16.6446 193.654 16.3585 193.99 16.1645C194.325 15.9705 194.711 15.8768 195.099 15.8948C195.509 15.8678 195.918 15.9729 196.263 16.1946C196.608 16.4163 196.872 16.7426 197.015 17.1249C197.189 16.7402 197.477 16.4168 197.841 16.1973C198.205 15.9777 198.627 15.8723 199.052 15.8948C200.4 15.8948 201.147 16.6988 201.147 18.1299V21.788H198.825V18.8695C198.825 18.2344 198.622 17.8083 198.062 17.8083C197.502 17.8083 197.128 18.1701 197.128 18.958V21.788H194.928V18.8695C194.928 18.2344 194.725 17.8083 194.165 17.8083C193.605 17.8083 193.232 18.1701 193.232 18.958V21.788H190.918V16.0797H190.959Z" fill="#035536"/>
<path d="M204.11 15.2757H201.755V13.0969H204.11V15.2757ZM204.11 21.8202H201.788V16.0797H204.11V21.8202Z" fill="#035536"/>
<path d="M207.089 21.788H204.775V13.0969H207.089V21.788Z" fill="#035536"/>
<path d="M214.663 16.0798L210.677 24.3046H208.355L209.874 21.2093L207.227 16.0798H209.792L211.002 18.8616L212.398 16.0798H214.663Z" fill="#035536"/>
<path d="M186.55 28.4129C186.55 30.9615 185.073 32.8107 182.272 32.8107C179.472 32.8107 177.515 30.9615 177.515 28.2682C177.515 25.5748 179.269 23.7498 182.386 23.7498C183.648 23.7263 184.882 24.1194 185.893 24.8673L184.44 26.8049C183.852 26.2915 183.097 26.006 182.313 26.0009C182.006 25.9784 181.697 26.0214 181.408 26.1272C181.119 26.2329 180.857 26.3989 180.638 26.6138C180.419 26.8288 180.25 27.0877 180.141 27.3731C180.032 27.6586 179.987 27.9638 180.007 28.2682C179.984 28.5802 180.031 28.8934 180.143 29.1857C180.255 29.4781 180.431 29.7424 180.658 29.9602C180.885 30.1779 181.157 30.3437 181.456 30.4459C181.754 30.548 182.072 30.5841 182.386 30.5515C183.514 30.5515 184.058 30.053 184.156 29.4581H181.988V27.4722H186.51C186.534 27.8099 186.55 28.1395 186.55 28.4129Z" fill="#035536"/>
<path d="M191.04 28.8713H190.902C189.798 28.8713 189.278 29.2492 189.278 30.5275V32.6259H186.957V26.8854H189.197V27.9548C189.307 27.5709 189.549 27.2371 189.881 27.011C190.213 26.785 190.614 26.6808 191.016 26.7166V28.8713H191.04Z" fill="#035536"/>
<path d="M191.251 29.7475C191.251 27.8903 192.615 26.6924 194.571 26.6924C196.528 26.6924 197.891 27.8903 197.891 29.7475C197.891 31.6047 196.528 32.8027 194.571 32.8027C192.615 32.8027 191.251 31.6208 191.251 29.7475ZM195.7 29.7475C195.711 29.5245 195.655 29.3031 195.538 29.1121C195.421 28.9211 195.249 28.7691 195.044 28.6758C194.839 28.5825 194.61 28.5522 194.388 28.5888C194.166 28.6253 193.959 28.7271 193.796 28.8809C193.632 29.0347 193.519 29.2335 193.47 29.4517C193.422 29.6699 193.441 29.8974 193.524 30.1049C193.608 30.3124 193.752 30.4904 193.939 30.6158C194.125 30.7413 194.346 30.8085 194.571 30.8088C194.717 30.8201 194.865 30.8009 195.003 30.7523C195.141 30.7037 195.268 30.6269 195.374 30.5269C195.48 30.4268 195.564 30.3057 195.62 30.1715C195.676 30.0372 195.703 29.8928 195.7 29.7475Z" fill="#035536"/>
<path d="M198.191 29.7475C198.191 27.834 199.58 26.6924 201.504 26.6924C202.254 26.6845 202.993 26.8731 203.647 27.2391L202.754 29.04C202.442 28.8481 202.082 28.7451 201.715 28.7425C201.571 28.7245 201.424 28.737 201.286 28.7792C201.147 28.8214 201.019 28.8924 200.91 28.9875C200.801 29.0826 200.714 29.1995 200.654 29.3306C200.594 29.4616 200.563 29.6037 200.563 29.7475C200.563 29.8913 200.594 30.0335 200.654 30.1645C200.714 30.2955 200.801 30.4125 200.91 30.5075C201.019 30.6026 201.147 30.6736 201.286 30.7159C201.424 30.7581 201.571 30.7706 201.715 30.7525C202.082 30.7499 202.442 30.647 202.754 30.455L203.647 32.256C202.995 32.6248 202.254 32.8136 201.504 32.8027C199.588 32.8107 198.191 31.6691 198.191 29.7475Z" fill="#035536"/>
<path d="M209.662 29.8923V30.2943H205.676C205.863 30.8491 206.342 31.0501 207.121 31.0501C207.625 31.037 208.121 30.9278 208.583 30.7285L209.2 32.4008C208.514 32.6754 207.78 32.8147 207.04 32.8108C204.84 32.8108 203.533 31.7335 203.533 29.7717C203.5 29.3574 203.56 28.941 203.707 28.5517C203.854 28.1625 204.085 27.8099 204.385 27.5187C204.684 27.2275 205.044 27.0048 205.44 26.8662C205.836 26.7277 206.257 26.6766 206.675 26.7166C208.469 26.7166 209.662 27.7377 209.662 29.8923ZM205.603 29.0884H207.446C207.453 28.9693 207.435 28.8502 207.392 28.7387C207.349 28.6272 207.283 28.526 207.198 28.4417C207.113 28.3574 207.011 28.2919 206.898 28.2495C206.785 28.2072 206.665 28.1889 206.545 28.1959C206.424 28.1948 206.303 28.2179 206.191 28.2636C206.078 28.3094 205.976 28.377 205.891 28.4624C205.805 28.5479 205.738 28.6494 205.693 28.7611C205.648 28.8727 205.625 28.9922 205.628 29.1125L205.603 29.0884Z" fill="#035536"/>
<path d="M214.086 28.8712H213.948C212.853 28.8712 212.325 29.2491 212.325 30.5275V32.6259H210.011V26.8854H212.227V27.9547C212.339 27.5716 212.581 27.2388 212.913 27.0129C213.244 26.7871 213.645 26.6824 214.046 26.7165V28.8712H214.086Z" fill="#035536"/>
<path d="M221.758 26.8855L217.772 35.1103H215.475L216.993 32.0149L214.346 26.8855H216.928L218.145 29.6673L219.509 26.8855H221.758Z" fill="#035536"/>
<path d="M184.708 35.3193L183.677 37.4177C183.04 36.9944 182.299 36.7524 181.533 36.7182C181.16 36.7182 180.998 36.8227 180.998 37.0479C180.998 37.273 181.095 37.3292 181.46 37.5142L183.263 38.4307C183.759 38.6216 184.182 38.9615 184.473 39.4027C184.764 39.8439 184.909 40.3643 184.886 40.8909C184.886 42.6758 183.685 43.6486 181.436 43.6486C180.134 43.6482 178.855 43.31 177.726 42.6677L178.814 40.4085C179.594 41.0439 180.558 41.4182 181.566 41.4778C182.029 41.4778 182.305 41.3733 182.305 41.0919C182.305 40.8105 182.15 40.7703 181.874 40.6336L179.959 39.6769C179.485 39.4626 179.085 39.1151 178.81 38.6777C178.534 38.2402 178.394 37.7322 178.408 37.2167C178.408 35.665 179.496 34.5876 181.704 34.5876C182.75 34.5918 183.779 34.8426 184.708 35.3193Z" fill="#035536"/>
<path d="M188.377 39.6126V40.5452C188.377 41.1563 188.507 41.3492 188.994 41.3492H189.197V43.4878H188.255C186.989 43.4878 186.064 42.917 186.064 41.2447V39.6367H184.895V37.7313H186.064V35.4319H188.385V37.7313H189.611V39.6126H188.377Z" fill="#035536"/>
<path d="M189.757 40.5935C189.757 38.7363 191.129 37.5383 193.085 37.5383C195.042 37.5383 196.405 38.7363 196.405 40.5935C196.405 42.4507 195.034 43.6486 193.085 43.6486C191.137 43.6486 189.757 42.4587 189.757 40.5935ZM194.205 40.5935C194.205 40.2971 194.087 40.0128 193.875 39.8033C193.663 39.5937 193.376 39.4759 193.077 39.4759C192.778 39.4759 192.491 39.5937 192.279 39.8033C192.068 40.0128 191.949 40.2971 191.949 40.5935C191.949 40.8899 192.068 41.1741 192.279 41.3837C192.491 41.5933 192.778 41.711 193.077 41.711C193.376 41.711 193.663 41.5933 193.875 41.3837C194.087 41.1741 194.205 40.8899 194.205 40.5935Z" fill="#035536"/>
<path d="M200.862 39.7089H200.724C199.62 39.7089 199.101 40.0868 199.101 41.3651V43.4635H196.787V37.723H199.028V38.7923C199.139 38.4093 199.381 38.0764 199.713 37.8506C200.045 37.6248 200.445 37.52 200.846 37.5542V39.7089H200.862Z" fill="#035536"/>
<path d="M207.17 40.73V41.132H203.184C203.371 41.6867 203.842 41.8877 204.621 41.8877C205.127 41.8757 205.626 41.7665 206.09 41.5661L206.707 43.2384C206.021 43.513 205.288 43.6523 204.548 43.6485C202.34 43.6485 201.041 42.5711 201.041 40.6094C201.008 40.195 201.067 39.7786 201.215 39.3894C201.362 39.0001 201.593 38.6475 201.893 38.3563C202.192 38.0652 202.552 37.8424 202.948 37.7039C203.343 37.5653 203.765 37.5142 204.183 37.5542C205.977 37.5542 207.17 38.5914 207.17 40.73ZM203.111 39.926H204.954C204.96 39.8118 204.944 39.6975 204.904 39.59C204.865 39.4825 204.804 39.384 204.725 39.3005C204.646 39.2171 204.551 39.1504 204.445 39.1045C204.339 39.0586 204.225 39.0345 204.11 39.0336C203.983 39.0233 203.856 39.0396 203.736 39.0814C203.617 39.1232 203.507 39.1895 203.415 39.276C203.324 39.3625 203.251 39.4673 203.203 39.5835C203.155 39.6996 203.132 39.8246 203.135 39.9501L203.111 39.926Z" fill="#035536"/>
</g>
<defs>
<clipPath id="clip0_349_2057">
<rect width="228" height="50" fill="white"/>
</clipPath>
</defs>
</svg>
