<svg width="136" height="27" viewBox="0 0 136 27" fill="none" xmlns="http://www.w3.org/2000/svg">
<path d="M12 0L14.6942 9.27191H23.4127L16.3593 15.0023L19.0534 24.2742L12 18.5438L4.94658 24.2742L7.64074 15.0023L0.587322 9.27191H9.30583L12 0Z" fill="#E27184"/>
<path d="M40 0L42.6942 9.27191H51.4127L44.3593 15.0023L47.0534 24.2742L40 18.5438L32.9466 24.2742L35.6407 15.0023L28.5873 9.27191H37.3058L40 0Z" fill="#E27184"/>
<path d="M68 0L70.6942 9.27191H79.4127L72.3593 15.0023L75.0534 24.2742L68 18.5438L60.9466 24.2742L63.6407 15.0023L56.5873 9.27191H65.3058L68 0Z" fill="#E27184"/>
<path d="M96 0L98.6942 9.27191H107.413L100.359 15.0023L103.053 24.2742L96 18.5438L88.9466 24.2742L91.6407 15.0023L84.5873 9.27191H93.3058L96 0Z" fill="#E27184"/>
<path d="M124 0L126.694 9.27191H135.413L128.359 15.0023L131.053 24.2742L124 18.5438L116.947 24.2742L119.641 15.0023L112.587 9.27191H121.306L124 0Z" fill="#ACA9A9"/>
</svg>
