<svg width="141" height="28" viewBox="0 0 141 28" fill="none" xmlns="http://www.w3.org/2000/svg">
<path d="M12.4216 0L15.2104 9.60515H24.2353L16.934 15.5415L19.7229 25.1466L12.4216 19.2103L5.12038 25.1466L7.9092 15.5415L0.607958 9.60515H9.63279L12.4216 0Z" fill="#E27184"/>
<path d="M41.4054 0L44.1942 9.60515H53.219L45.9178 15.5415L48.7066 25.1466L41.4054 19.2103L34.1041 25.1466L36.893 15.5415L29.5917 9.60515H38.6166L41.4054 0Z" fill="#E27184"/>
<path d="M70.3892 0L73.178 9.60515H82.2028L74.9016 15.5415L77.6904 25.1466L70.3892 19.2103L63.0879 25.1466L65.8767 15.5415L58.5755 9.60515H67.6003L70.3892 0Z" fill="#E27184"/>
<path d="M99.373 0L102.162 9.60515H111.187L103.885 15.5415L106.674 25.1466L99.373 19.2103L92.0718 25.1466L94.8606 15.5415L87.5594 9.60515H96.5842L99.373 0Z" fill="#ACA9A9"/>
<path d="M128.357 0L131.146 9.60515H140.17L132.869 15.5415L135.658 25.1466L128.357 19.2103L121.056 25.1466L123.844 15.5415L116.543 9.60515H125.568L128.357 0Z" fill="#ACA9A9"/>
</svg>
